<svg width="766" height="229" viewBox="0 0 766 229" fill="none" xmlns="http://www.w3.org/2000/svg">
<path d="M530.1 81V79.9746L531.008 79.7988V73.6758L530.1 73.5V72.4688H536.569V74.6309H535.256L535.186 73.7871H532.742V75.627H534.207C534.867 75.627 535.436 75.7363 535.912 75.9551C536.393 76.1738 536.762 76.4824 537.02 76.8809C537.281 77.2754 537.412 77.7422 537.412 78.2812C537.412 78.8242 537.281 79.3008 537.02 79.7109C536.758 80.1172 536.387 80.4336 535.906 80.6602C535.426 80.8867 534.86 81 534.207 81H530.1ZM532.742 79.6875H534.207C534.688 79.6875 535.057 79.5527 535.315 79.2832C535.576 79.0137 535.707 78.6758 535.707 78.2695C535.707 77.8789 535.578 77.5605 535.32 77.3145C535.063 77.0684 534.692 76.9453 534.207 76.9453H532.742V79.6875ZM539.225 81V79.9746L540.139 79.7988V73.6758L539.225 73.5V72.4688H540.139H541.844H542.758V73.5L541.844 73.6758V77.625L541.879 77.6367L545.318 74.1504V73.6758L544.41 73.5V72.4688H545.318H547.035H547.943V73.5L547.035 73.6758V79.7988L547.943 79.9746V81H544.41V79.9746L545.318 79.7988V75.9434L545.283 75.9316L541.844 79.4238V79.7988L542.758 79.9746V81H539.225ZM549.715 81V79.9746L550.629 79.7988V73.6758L549.715 73.5V72.4688H550.629H552.334H553.248V73.5L552.334 73.6758V77.625L552.369 77.6367L555.809 74.1504V73.6758L554.9 73.5V72.4688H555.809H557.525H558.434V73.5L557.525 73.6758V79.7988L558.434 79.9746V81H554.9V79.9746L555.809 79.7988V75.9434L555.773 75.9316L552.334 79.4238V79.7988L553.248 79.9746V81H549.715ZM554.08 71.9473C553.451 71.9473 552.951 71.7891 552.58 71.4727C552.209 71.1523 552.031 70.7422 552.047 70.2422L552.059 70.207H553.219C553.219 70.4336 553.287 70.6211 553.424 70.7695C553.564 70.918 553.783 70.9922 554.08 70.9922C554.373 70.9922 554.588 70.9199 554.725 70.7754C554.861 70.6309 554.93 70.4414 554.93 70.207H556.102L556.113 70.2422C556.121 70.7422 555.941 71.1523 555.574 71.4727C555.207 71.7891 554.709 71.9473 554.08 71.9473ZM564.189 81.123C563.361 81.123 562.641 80.9512 562.027 80.6074C561.414 80.2598 560.939 79.7695 560.603 79.1367C560.271 78.5 560.105 77.748 560.105 76.8809V76.5938C560.105 75.7656 560.266 75.0332 560.586 74.3965C560.91 73.7559 561.371 73.2539 561.969 72.8906C562.566 72.5273 563.277 72.3457 564.101 72.3457C564.68 72.3457 565.221 72.4277 565.725 72.5918C566.232 72.7559 566.685 73.0059 567.084 73.3418V75.4043H565.812L565.637 74.1094C565.508 74.0156 565.367 73.9355 565.215 73.8691C565.062 73.8027 564.896 73.752 564.717 73.7168C564.541 73.6816 564.35 73.6641 564.143 73.6641C563.658 73.6641 563.242 73.7832 562.894 74.0215C562.547 74.2598 562.279 74.5977 562.092 75.0352C561.908 75.4688 561.816 75.9844 561.816 76.582V76.8809C561.816 77.4785 561.914 77.9961 562.109 78.4336C562.305 78.8711 562.582 79.2109 562.941 79.4531C563.301 79.6914 563.726 79.8105 564.219 79.8105C564.465 79.8105 564.711 79.7832 564.957 79.7285C565.207 79.6699 565.434 79.5957 565.637 79.5059L565.812 78.3047H567.084V80.3438C566.752 80.5625 566.338 80.748 565.842 80.9004C565.346 81.0488 564.795 81.123 564.189 81.123ZM569.025 81V79.9746L569.933 79.7988V73.6758L569.025 73.5V72.4688H572.512V73.5L571.644 73.6758V75.9551H572.412L574.012 73.6523C574.351 73.1758 574.666 72.8457 574.955 72.6621C575.244 72.4785 575.566 72.3867 575.922 72.3867C576.14 72.3867 576.336 72.4141 576.508 72.4688C576.683 72.5234 576.844 72.5957 576.988 72.6855L576.701 73.9688C576.619 73.9492 576.543 73.9336 576.472 73.9219C576.406 73.9062 576.34 73.8984 576.273 73.8984C576.105 73.8984 575.939 73.9492 575.775 74.0508C575.615 74.1523 575.428 74.3418 575.213 74.6191L573.877 76.4473L576.238 79.8281L577.135 79.9746V81H573.754V79.9746L574.24 79.9043L574.228 79.8867L572.646 77.5078H571.644V79.7988L572.512 79.9746V81H569.025Z" fill="white" style="fill:white;fill-opacity:1;"/>
<path d="M325.039 155V153.975L325.947 153.799V147.676L325.039 147.5V146.469H331.508V148.631H330.196L330.125 147.787H327.682V149.627H329.147C329.807 149.627 330.375 149.736 330.852 149.955C331.332 150.174 331.701 150.482 331.959 150.881C332.221 151.275 332.352 151.742 332.352 152.281C332.352 152.824 332.221 153.301 331.959 153.711C331.697 154.117 331.326 154.434 330.846 154.66C330.365 154.887 329.799 155 329.147 155H325.039ZM327.682 153.688H329.147C329.627 153.688 329.996 153.553 330.254 153.283C330.516 153.014 330.647 152.676 330.647 152.27C330.647 151.879 330.518 151.561 330.26 151.314C330.002 151.068 329.631 150.945 329.147 150.945H327.682V153.688ZM334 155V153.975L334.61 153.887L337.322 146.469H339.074L341.77 153.887L342.379 153.975V155H339.473V153.975L340.065 153.869L339.69 152.697H336.69L336.315 153.869L336.906 153.975V155H334ZM337.094 151.438H339.285L338.289 148.514L338.207 148.256H338.172L338.084 148.531L337.094 151.438ZM344.027 155V153.975L344.936 153.799V147.676L344.027 147.5V146.469H344.936H348.088C348.74 146.469 349.303 146.584 349.775 146.814C350.248 147.041 350.611 147.359 350.865 147.77C351.119 148.176 351.246 148.65 351.246 149.193C351.246 149.736 351.119 150.213 350.865 150.623C350.611 151.029 350.248 151.346 349.775 151.572C349.303 151.795 348.74 151.906 348.088 151.906H346.647V153.799L347.561 153.975V155H344.027ZM346.647 150.588H348.088C348.565 150.588 348.924 150.459 349.166 150.201C349.412 149.939 349.535 149.607 349.535 149.205C349.535 148.795 349.412 148.457 349.166 148.191C348.924 147.922 348.565 147.787 348.088 147.787H346.647V150.588ZM352.877 155V153.975L353.785 153.799V147.676L352.877 147.5V146.469H356.41V147.5L355.496 147.676V150.137H358.977V147.676L358.062 147.5V146.469H358.977H360.682H361.596V147.5L360.682 147.676V153.799L361.596 153.975V155H358.062V153.975L358.977 153.799V151.455H355.496V153.799L356.41 153.975V155H352.877ZM362.682 155V153.975L363.291 153.887L366.004 146.469H367.756L370.451 153.887L371.06 153.975V155H368.154V153.975L368.746 153.869L368.371 152.697H365.371L364.996 153.869L365.588 153.975V155H362.682ZM365.775 151.438H367.967L366.971 148.514L366.889 148.256H366.853L366.766 148.531L365.775 151.438ZM374.918 155.123C374.82 155.123 374.709 155.119 374.584 155.111C374.463 155.104 374.371 155.098 374.308 155.094L374.297 153.787C374.34 153.795 374.414 153.801 374.519 153.805C374.625 153.809 374.705 153.811 374.76 153.811C375.068 153.811 375.301 153.742 375.457 153.605C375.613 153.469 375.742 153.262 375.844 152.984L375.972 152.662L373.523 147.623L372.615 147.5V146.469H375.967V147.5L375.334 147.6L376.5 150.189L376.705 150.717H376.74L377.9 147.617L377.308 147.5V146.469H380.502V147.5L379.67 147.611L377.238 153.383C377.074 153.754 376.892 154.07 376.693 154.332C376.494 154.59 376.252 154.787 375.967 154.924C375.685 155.057 375.336 155.123 374.918 155.123ZM381.676 155V153.688H381.904C382.17 153.668 382.388 153.6 382.56 153.482C382.736 153.365 382.873 153.184 382.97 152.938C383.072 152.688 383.144 152.354 383.187 151.936C383.234 151.514 383.26 150.986 383.263 150.354L383.293 147.676L382.396 147.5V146.469H390.019V147.5L389.105 147.676V153.799L390.019 153.975V155H386.486V153.975L387.4 153.799V147.787H384.998L384.974 150.354C384.967 151.182 384.902 151.891 384.781 152.48C384.664 153.066 384.486 153.547 384.248 153.922C384.013 154.293 383.719 154.566 383.363 154.742C383.008 154.914 382.586 155 382.097 155H381.676Z" fill="white" style="fill:white;fill-opacity:1;"/>
<path d="M15.3168 54V52.9746L16.225 52.7988V46.6758L15.3168 46.5V45.4688H18.85V46.5L17.9359 46.6758V49.1367H21.4164V46.6758L20.5023 46.5V45.4688H21.4164H23.1215H24.0355V46.5L23.1215 46.6758V52.7988L24.0355 52.9746V54H20.5023V52.9746L21.4164 52.7988V50.4551H17.9359V52.7988L18.85 52.9746V54H15.3168ZM29.68 54.123C29.1058 54.123 28.5823 54.0156 28.1097 53.8008C27.637 53.5859 27.2288 53.2852 26.8851 52.8984C26.5452 52.5078 26.2835 52.0508 26.0999 51.5273C25.9163 51 25.8245 50.4238 25.8245 49.7988V49.6699C25.8245 49.0488 25.9163 48.4766 26.0999 47.9531C26.2835 47.4258 26.5452 46.9668 26.8851 46.5762C27.2249 46.1855 27.6312 45.8828 28.1038 45.668C28.5765 45.4531 29.0999 45.3457 29.6741 45.3457C30.2523 45.3457 30.7796 45.4531 31.2562 45.668C31.7327 45.8828 32.1429 46.1855 32.4866 46.5762C32.8304 46.9668 33.0941 47.4258 33.2777 47.9531C33.4652 48.4766 33.5589 49.0488 33.5589 49.6699V49.7988C33.5589 50.4238 33.4652 51 33.2777 51.5273C33.0941 52.0508 32.8304 52.5078 32.4866 52.8984C32.1429 53.2852 31.7327 53.5859 31.2562 53.8008C30.7835 54.0156 30.2581 54.123 29.68 54.123ZM29.68 52.793C30.1644 52.793 30.5667 52.668 30.887 52.418C31.2073 52.168 31.4476 51.8184 31.6077 51.3691C31.7718 50.9199 31.8538 50.3965 31.8538 49.7988V49.6582C31.8538 49.0684 31.7718 48.5508 31.6077 48.1055C31.4437 47.6562 31.1995 47.3066 30.8753 47.0566C30.555 46.8066 30.1546 46.6816 29.6741 46.6816C29.1976 46.6816 28.8011 46.8066 28.4847 47.0566C28.1683 47.3027 27.93 47.6484 27.7698 48.0938C27.6136 48.5391 27.5355 49.0605 27.5355 49.6582V49.7988C27.5355 50.3965 27.6136 50.9199 27.7698 51.3691C27.93 51.8184 28.1683 52.168 28.4847 52.418C28.805 52.668 29.2034 52.793 29.68 52.793ZM35.3362 54V52.9746L36.2444 52.7988V46.6758L35.3362 46.5V45.4688H36.2444H39.1272C40.1311 45.4688 40.9143 45.6641 41.4768 46.0547C42.0393 46.4453 42.3205 47.0293 42.3205 47.8066C42.3205 48.2012 42.2151 48.5547 42.0041 48.8672C41.7971 49.1758 41.4944 49.4082 41.0959 49.5645C41.4358 49.6387 41.719 49.7695 41.9455 49.957C42.176 50.1445 42.3479 50.373 42.4612 50.6426C42.5745 50.9082 42.6311 51.1992 42.6311 51.5156C42.6311 52.332 42.3616 52.9512 41.8225 53.373C41.2834 53.791 40.5198 54 39.5315 54H35.3362ZM37.9553 52.6875H39.5315C39.9846 52.6875 40.3303 52.5898 40.5686 52.3945C40.8069 52.1953 40.926 51.9023 40.926 51.5156C40.926 51.2344 40.8811 50.998 40.7912 50.8066C40.7014 50.6152 40.5627 50.4707 40.3752 50.373C40.1916 50.2754 39.9534 50.2266 39.6604 50.2266H37.9553V52.6875ZM37.9553 49.043H39.1858C39.6428 49.043 39.9944 48.9492 40.2405 48.7617C40.4866 48.5742 40.6096 48.3008 40.6096 47.9414C40.6096 47.5469 40.4846 47.2559 40.2346 47.0684C39.9885 46.8809 39.6194 46.7871 39.1272 46.7871H37.9553V49.043ZM48.258 54.123C47.6837 54.123 47.1603 54.0156 46.6877 53.8008C46.215 53.5859 45.8068 53.2852 45.463 52.8984C45.1232 52.5078 44.8615 52.0508 44.6779 51.5273C44.4943 51 44.4025 50.4238 44.4025 49.7988V49.6699C44.4025 49.0488 44.4943 48.4766 44.6779 47.9531C44.8615 47.4258 45.1232 46.9668 45.463 46.5762C45.8029 46.1855 46.2091 45.8828 46.6818 45.668C47.1544 45.4531 47.6779 45.3457 48.2521 45.3457C48.8302 45.3457 49.3576 45.4531 49.8341 45.668C50.3107 45.8828 50.7209 46.1855 51.0646 46.5762C51.4084 46.9668 51.672 47.4258 51.8556 47.9531C52.0431 48.4766 52.1369 49.0488 52.1369 49.6699V49.7988C52.1369 50.4238 52.0431 51 51.8556 51.5273C51.672 52.0508 51.4084 52.5078 51.0646 52.8984C50.7209 53.2852 50.3107 53.5859 49.8341 53.8008C49.3615 54.0156 48.8361 54.123 48.258 54.123ZM48.258 52.793C48.7423 52.793 49.1447 52.668 49.465 52.418C49.7853 52.168 50.0255 51.8184 50.1857 51.3691C50.3498 50.9199 50.4318 50.3965 50.4318 49.7988V49.6582C50.4318 49.0684 50.3498 48.5508 50.1857 48.1055C50.0216 47.6562 49.7775 47.3066 49.4533 47.0566C49.133 46.8066 48.7326 46.6816 48.2521 46.6816C47.7755 46.6816 47.3791 46.8066 47.0627 47.0566C46.7462 47.3027 46.508 47.6484 46.3478 48.0938C46.1916 48.5391 46.1134 49.0605 46.1134 49.6582V49.7988C46.1134 50.3965 46.1916 50.9199 46.3478 51.3691C46.508 51.8184 46.7462 52.168 47.0627 52.418C47.383 52.668 47.7814 52.793 48.258 52.793ZM58.1036 54.123C57.2755 54.123 56.5548 53.9512 55.9415 53.6074C55.3282 53.2598 54.8536 52.7695 54.5177 52.1367C54.1856 51.5 54.0196 50.748 54.0196 49.8809V49.5938C54.0196 48.7656 54.1798 48.0332 54.5001 47.3965C54.8243 46.7559 55.2852 46.2539 55.8829 45.8906C56.4805 45.5273 57.1915 45.3457 58.0157 45.3457C58.5938 45.3457 59.1348 45.4277 59.6387 45.5918C60.1466 45.7559 60.5997 46.0059 60.9981 46.3418V48.4043H59.7266L59.5509 47.1094C59.422 47.0156 59.2813 46.9355 59.129 46.8691C58.9766 46.8027 58.8106 46.752 58.6309 46.7168C58.4552 46.6816 58.2637 46.6641 58.0567 46.6641C57.5723 46.6641 57.1563 46.7832 56.8087 47.0215C56.461 47.2598 56.1934 47.5977 56.0059 48.0352C55.8223 48.4688 55.7305 48.9844 55.7305 49.582V49.8809C55.7305 50.4785 55.8282 50.9961 56.0235 51.4336C56.2188 51.8711 56.4962 52.2109 56.8555 52.4531C57.2149 52.6914 57.6407 52.8105 58.1329 52.8105C58.379 52.8105 58.6251 52.7832 58.8712 52.7285C59.1212 52.6699 59.3477 52.5957 59.5509 52.5059L59.7266 51.3047H60.9981V53.3438C60.6661 53.5625 60.252 53.748 59.7559 53.9004C59.2598 54.0488 58.7091 54.123 58.1036 54.123ZM63.0156 54V52.9746L63.9297 52.7988V46.6758L63.0156 46.5V45.4688H63.9297H65.6348H66.5488V46.5L65.6348 46.6758V50.625L65.6699 50.6367L69.1094 47.1504V46.6758L68.2012 46.5V45.4688H69.1094H70.8262H71.7344V46.5L70.8262 46.6758V52.7988L71.7344 52.9746V54H68.2012V52.9746L69.1094 52.7988V48.9434L69.0742 48.9316L65.6348 52.4238V52.7988L66.5488 52.9746V54H63.0156ZM73.4765 54V52.9746L74.3847 52.7988V46.6758L73.4765 46.5V45.4688H79.9452V47.6309H78.6327L78.5624 46.7871H76.1191V48.627H77.5839C78.2441 48.627 78.8124 48.7363 79.289 48.9551C79.7695 49.1738 80.1386 49.4824 80.3964 49.8809C80.6581 50.2754 80.789 50.7422 80.789 51.2812C80.789 51.8242 80.6581 52.3008 80.3964 52.7109C80.1347 53.1172 79.7636 53.4336 79.2831 53.6602C78.8027 53.8867 78.2363 54 77.5839 54H73.4765ZM76.1191 52.6875H77.5839C78.0644 52.6875 78.4335 52.5527 78.6913 52.2832C78.953 52.0137 79.0839 51.6758 79.0839 51.2695C79.0839 50.8789 78.955 50.5605 78.6972 50.3145C78.4394 50.0684 78.0683 49.9453 77.5839 49.9453H76.1191V52.6875ZM82.6014 54V52.9746L83.5155 52.7988V46.6758L82.6014 46.5V45.4688H83.5155H85.2205H86.1346V46.5L85.2205 46.6758V50.625L85.2557 50.6367L88.6952 47.1504V46.6758L87.7869 46.5V45.4688H88.6952H90.4119H91.3202V46.5L90.4119 46.6758V52.7988L91.3202 52.9746V54H87.7869V52.9746L88.6952 52.7988V48.9434L88.66 48.9316L85.2205 52.4238V52.7988L86.1346 52.9746V54H82.6014ZM93.0154 54V52.9746L93.9236 52.7988V46.6758L93.0154 46.5V45.4688H93.9236H97.0759C97.7283 45.4688 98.2908 45.584 98.7634 45.8145C99.2361 46.041 99.5994 46.3594 99.8533 46.7695C100.107 47.1758 100.234 47.6504 100.234 48.1934C100.234 48.7363 100.107 49.2129 99.8533 49.623C99.5994 50.0293 99.2361 50.3457 98.7634 50.5723C98.2908 50.7949 97.7283 50.9062 97.0759 50.9062H95.6345V52.7988L96.5486 52.9746V54H93.0154ZM95.6345 49.5879H97.0759C97.5525 49.5879 97.9119 49.459 98.1541 49.2012C98.4002 48.9395 98.5232 48.6074 98.5232 48.2051C98.5232 47.7949 98.4002 47.457 98.1541 47.1914C97.9119 46.9219 97.5525 46.7871 97.0759 46.7871H95.6345V49.5879ZM105.925 54.123C105.097 54.123 104.377 53.9512 103.763 53.6074C103.15 53.2598 102.675 52.7695 102.34 52.1367C102.007 51.5 101.841 50.748 101.841 49.8809V49.5938C101.841 48.7656 102.002 48.0332 102.322 47.3965C102.646 46.7559 103.107 46.2539 103.705 45.8906C104.302 45.5273 105.013 45.3457 105.838 45.3457C106.416 45.3457 106.957 45.4277 107.461 45.5918C107.968 45.7559 108.422 46.0059 108.82 46.3418V48.4043H107.549L107.373 47.1094C107.244 47.0156 107.103 46.9355 106.951 46.8691C106.799 46.8027 106.632 46.752 106.453 46.7168C106.277 46.6816 106.086 46.6641 105.879 46.6641C105.394 46.6641 104.978 46.7832 104.631 47.0215C104.283 47.2598 104.015 47.5977 103.828 48.0352C103.644 48.4688 103.552 48.9844 103.552 49.582V49.8809C103.552 50.4785 103.65 50.9961 103.845 51.4336C104.041 51.8711 104.318 52.2109 104.677 52.4531C105.037 52.6914 105.463 52.8105 105.955 52.8105C106.201 52.8105 106.447 52.7832 106.693 52.7285C106.943 52.6699 107.17 52.5957 107.373 52.5059L107.549 51.3047H108.82V53.3438C108.488 53.5625 108.074 53.748 107.578 53.9004C107.082 54.0488 106.531 54.123 105.925 54.123ZM110.761 54V52.9746L111.67 52.7988V46.6758L110.761 46.5V45.4688H114.248V46.5L113.38 46.6758V48.9551H114.148L115.748 46.6523C116.088 46.1758 116.402 45.8457 116.691 45.6621C116.98 45.4785 117.302 45.3867 117.658 45.3867C117.877 45.3867 118.072 45.4141 118.244 45.4688C118.42 45.5234 118.58 45.5957 118.724 45.6855L118.437 46.9688C118.355 46.9492 118.279 46.9336 118.209 46.9219C118.142 46.9062 118.076 46.8984 118.009 46.8984C117.841 46.8984 117.675 46.9492 117.511 47.0508C117.351 47.1523 117.164 47.3418 116.949 47.6191L115.613 49.4473L117.974 52.8281L118.871 52.9746V54H115.49V52.9746L115.976 52.9043L115.964 52.8867L114.382 50.5078H113.38V52.7988L114.248 52.9746V54H110.761Z" fill="white" style="fill:white;fill-opacity:1;"/>
<path d="M634.237 22V20.9746L635.145 20.7988V14.6758L634.237 14.5V13.4688H640.706V15.6309H639.393L639.323 14.7871H636.856V20.7988L637.77 20.9746V22H634.237ZM645.946 22.123C645.371 22.123 644.848 22.0156 644.375 21.8008C643.903 21.5859 643.495 21.2852 643.151 20.8984C642.811 20.5078 642.549 20.0508 642.366 19.5273C642.182 19 642.09 18.4238 642.09 17.7988V17.6699C642.09 17.0488 642.182 16.4766 642.366 15.9531C642.549 15.4258 642.811 14.9668 643.151 14.5762C643.491 14.1855 643.897 13.8828 644.37 13.668C644.842 13.4531 645.366 13.3457 645.94 13.3457C646.518 13.3457 647.045 13.4531 647.522 13.668C647.998 13.8828 648.409 14.1855 648.752 14.5762C649.096 14.9668 649.36 15.4258 649.543 15.9531C649.731 16.4766 649.825 17.0488 649.825 17.6699V17.7988C649.825 18.4238 649.731 19 649.543 19.5273C649.36 20.0508 649.096 20.5078 648.752 20.8984C648.409 21.2852 647.998 21.5859 647.522 21.8008C647.049 22.0156 646.524 22.123 645.946 22.123ZM645.946 20.793C646.43 20.793 646.832 20.668 647.153 20.418C647.473 20.168 647.713 19.8184 647.873 19.3691C648.038 18.9199 648.12 18.3965 648.12 17.7988V17.6582C648.12 17.0684 648.038 16.5508 647.873 16.1055C647.709 15.6562 647.465 15.3066 647.141 15.0566C646.821 14.8066 646.42 14.6816 645.94 14.6816C645.463 14.6816 645.067 14.8066 644.75 15.0566C644.434 15.3027 644.196 15.6484 644.036 16.0938C643.879 16.5391 643.801 17.0605 643.801 17.6582V17.7988C643.801 18.3965 643.879 18.9199 644.036 19.3691C644.196 19.8184 644.434 20.168 644.75 20.418C645.071 20.668 645.469 20.793 645.946 20.793ZM651.602 22V20.9746L652.51 20.7988V14.6758L651.602 14.5V13.4688H652.51H655.662C656.315 13.4688 656.877 13.584 657.35 13.8145C657.823 14.041 658.186 14.3594 658.44 14.7695C658.694 15.1758 658.821 15.6504 658.821 16.1934C658.821 16.7363 658.694 17.2129 658.44 17.623C658.186 18.0293 657.823 18.3457 657.35 18.5723C656.877 18.7949 656.315 18.9062 655.662 18.9062H654.221V20.7988L655.135 20.9746V22H651.602ZM654.221 17.5879H655.662C656.139 17.5879 656.498 17.459 656.741 17.2012C656.987 16.9395 657.11 16.6074 657.11 16.2051C657.11 15.7949 656.987 15.457 656.741 15.1914C656.498 14.9219 656.139 14.7871 655.662 14.7871H654.221V17.5879ZM660.451 22V20.9746L661.36 20.7988V14.6758L660.451 14.5V13.4688H663.985V14.5L663.071 14.6758V17.1367H666.551V14.6758L665.637 14.5V13.4688H666.551H668.256H669.17V14.5L668.256 14.6758V20.7988L669.17 20.9746V22H665.637V20.9746L666.551 20.7988V18.4551H663.071V20.7988L663.985 20.9746V22H660.451ZM674.815 22.123C674.24 22.123 673.717 22.0156 673.244 21.8008C672.772 21.5859 672.363 21.2852 672.02 20.8984C671.68 20.5078 671.418 20.0508 671.235 19.5273C671.051 19 670.959 18.4238 670.959 17.7988V17.6699C670.959 17.0488 671.051 16.4766 671.235 15.9531C671.418 15.4258 671.68 14.9668 672.02 14.5762C672.36 14.1855 672.766 13.8828 673.238 13.668C673.711 13.4531 674.235 13.3457 674.809 13.3457C675.387 13.3457 675.914 13.4531 676.391 13.668C676.867 13.8828 677.278 14.1855 677.621 14.5762C677.965 14.9668 678.229 15.4258 678.412 15.9531C678.6 16.4766 678.694 17.0488 678.694 17.6699V17.7988C678.694 18.4238 678.6 19 678.412 19.5273C678.229 20.0508 677.965 20.5078 677.621 20.8984C677.278 21.2852 676.867 21.5859 676.391 21.8008C675.918 22.0156 675.393 22.123 674.815 22.123ZM674.815 20.793C675.299 20.793 675.701 20.668 676.022 20.418C676.342 20.168 676.582 19.8184 676.742 19.3691C676.906 18.9199 676.988 18.3965 676.988 17.7988V17.6582C676.988 17.0684 676.906 16.5508 676.742 16.1055C676.578 15.6562 676.334 15.3066 676.01 15.0566C675.69 14.8066 675.289 14.6816 674.809 14.6816C674.332 14.6816 673.936 14.8066 673.619 15.0566C673.303 15.3027 673.065 15.6484 672.904 16.0938C672.748 16.5391 672.67 17.0605 672.67 17.6582V17.7988C672.67 18.3965 672.748 18.9199 672.904 19.3691C673.065 19.8184 673.303 20.168 673.619 20.418C673.94 20.668 674.338 20.793 674.815 20.793ZM680.91 19.0117V17.6934H684.215V19.0117H680.91ZM686.244 22V20.9746L686.854 20.8867L689.566 13.4688H691.318L694.014 20.8867L694.623 20.9746V22H691.717V20.9746L692.309 20.8691L691.934 19.6973H688.934L688.559 20.8691L689.15 20.9746V22H686.244ZM689.338 18.4375H691.529L690.533 15.5137L690.451 15.2559H690.416L690.328 15.5312L689.338 18.4375ZM696.33 22V20.6875H696.559C696.824 20.668 697.043 20.5996 697.215 20.4824C697.391 20.3652 697.527 20.1836 697.625 19.9375C697.726 19.6875 697.799 19.3535 697.842 18.9355C697.889 18.5137 697.914 17.9863 697.918 17.3535L697.947 14.6758L697.051 14.5V13.4688H704.674V14.5L703.76 14.6758V20.7988L704.674 20.9746V22H701.141V20.9746L702.055 20.7988V14.7871H699.652L699.629 17.3535C699.621 18.1816 699.557 18.8906 699.435 19.4805C699.318 20.0664 699.141 20.5469 698.902 20.9219C698.668 21.293 698.373 21.5664 698.018 21.7422C697.662 21.9141 697.24 22 696.752 22H696.33ZM708.361 22V20.9746L709.275 20.7988V14.7871H707.723L707.629 15.8066H706.334V13.4688H713.945V15.8066H712.644L712.551 14.7871H710.986V20.7988L711.906 20.9746V22H708.361ZM714.48 22V20.9746L715.09 20.8867L717.803 13.4688H719.554L722.25 20.8867L722.859 20.9746V22H719.953V20.9746L720.545 20.8691L720.17 19.6973H717.17L716.795 20.8691L717.386 20.9746V22H714.48ZM717.574 18.4375H719.765L718.769 15.5137L718.687 15.2559H718.652L718.564 15.5312L717.574 18.4375ZM724.584 22V20.9746L725.498 20.7988V14.6758L724.584 14.5V13.4688H725.498H727.203H728.117V14.5L727.203 14.6758V18.625L727.238 18.6367L730.677 15.1504V14.6758L729.769 14.5V13.4688H730.677H732.394H733.302V14.5L732.394 14.6758V20.7988L733.302 20.9746V22H729.769V20.9746L730.677 20.7988V16.9434L730.642 16.9316L727.203 20.4238V20.7988L728.117 20.9746V22H724.584ZM728.949 12.9473C728.32 12.9473 727.82 12.7891 727.449 12.4727C727.078 12.1523 726.9 11.7422 726.916 11.2422L726.927 11.207H728.088C728.088 11.4336 728.156 11.6211 728.293 11.7695C728.433 11.918 728.652 11.9922 728.949 11.9922C729.242 11.9922 729.457 11.9199 729.593 11.7754C729.73 11.6309 729.799 11.4414 729.799 11.207H730.97L730.982 11.2422C730.99 11.7422 730.81 12.1523 730.443 12.4727C730.076 12.7891 729.578 12.9473 728.949 12.9473ZM739.058 22.123C738.23 22.123 737.509 21.9512 736.896 21.6074C736.283 21.2598 735.808 20.7695 735.472 20.1367C735.14 19.5 734.974 18.748 734.974 17.8809V17.5938C734.974 16.7656 735.134 16.0332 735.455 15.3965C735.779 14.7559 736.24 14.2539 736.837 13.8906C737.435 13.5273 738.146 13.3457 738.97 13.3457C739.548 13.3457 740.089 13.4277 740.593 13.5918C741.101 13.7559 741.554 14.0059 741.953 14.3418V16.4043H740.681L740.505 15.1094C740.377 15.0156 740.236 14.9355 740.084 14.8691C739.931 14.8027 739.765 14.752 739.586 14.7168C739.41 14.6816 739.218 14.6641 739.011 14.6641C738.527 14.6641 738.111 14.7832 737.763 15.0215C737.416 15.2598 737.148 15.5977 736.961 16.0352C736.777 16.4688 736.685 16.9844 736.685 17.582V17.8809C736.685 18.4785 736.783 18.9961 736.978 19.4336C737.173 19.8711 737.451 20.2109 737.81 20.4531C738.17 20.6914 738.595 20.8105 739.087 20.8105C739.334 20.8105 739.58 20.7832 739.826 20.7285C740.076 20.6699 740.302 20.5957 740.505 20.5059L740.681 19.3047H741.953V21.3438C741.621 21.5625 741.207 21.748 740.711 21.9004C740.214 22.0488 739.664 22.123 739.058 22.123ZM743.894 22V20.9746L744.802 20.7988V14.6758L743.894 14.5V13.4688H747.38V14.5L746.513 14.6758V16.9551H747.281L748.88 14.6523C749.22 14.1758 749.535 13.8457 749.824 13.6621C750.113 13.4785 750.435 13.3867 750.791 13.3867C751.009 13.3867 751.205 13.4141 751.376 13.4688C751.552 13.5234 751.712 13.5957 751.857 13.6855L751.57 14.9688C751.488 14.9492 751.412 14.9336 751.341 14.9219C751.275 14.9062 751.209 14.8984 751.142 14.8984C750.974 14.8984 750.808 14.9492 750.644 15.0508C750.484 15.1523 750.296 15.3418 750.082 15.6191L748.746 17.4473L751.107 20.8281L752.003 20.9746V22H748.623V20.9746L749.109 20.9043L749.097 20.8867L747.515 18.5078H746.513V20.7988L747.38 20.9746V22H743.894Z" fill="white" style="fill:white;fill-opacity:1;"/>
<path d="M659.093 137V135.975L660.001 135.799V129.676L659.093 129.5V128.469H660.001H663.154C663.806 128.469 664.369 128.584 664.841 128.814C665.314 129.041 665.677 129.359 665.931 129.77C666.185 130.176 666.312 130.65 666.312 131.193C666.312 131.736 666.185 132.213 665.931 132.623C665.677 133.029 665.314 133.346 664.841 133.572C664.369 133.795 663.806 133.906 663.154 133.906H661.712V135.799L662.626 135.975V137H659.093ZM661.712 132.588H663.154C663.63 132.588 663.99 132.459 664.232 132.201C664.478 131.939 664.601 131.607 664.601 131.205C664.601 130.795 664.478 130.457 664.232 130.191C663.99 129.922 663.63 129.787 663.154 129.787H661.712V132.588ZM667.943 137V135.975L668.851 135.799V129.676L667.943 129.5V128.469H674.564V130.771H673.251L673.175 129.787H670.562V131.932H673.45V133.25H670.562V135.688H673.316L673.392 134.668H674.693V137H667.943ZM680.747 137.123C679.919 137.123 679.198 136.951 678.585 136.607C677.972 136.26 677.497 135.77 677.161 135.137C676.829 134.5 676.663 133.748 676.663 132.881V132.594C676.663 131.766 676.823 131.033 677.144 130.396C677.468 129.756 677.929 129.254 678.527 128.891C679.124 128.527 679.835 128.346 680.659 128.346C681.238 128.346 681.779 128.428 682.282 128.592C682.79 128.756 683.243 129.006 683.642 129.342V131.404H682.37L682.195 130.109C682.066 130.016 681.925 129.936 681.773 129.869C681.62 129.803 681.454 129.752 681.275 129.717C681.099 129.682 680.907 129.664 680.7 129.664C680.216 129.664 679.8 129.783 679.452 130.021C679.105 130.26 678.837 130.598 678.65 131.035C678.466 131.469 678.374 131.984 678.374 132.582V132.881C678.374 133.479 678.472 133.996 678.667 134.434C678.863 134.871 679.14 135.211 679.499 135.453C679.859 135.691 680.284 135.811 680.777 135.811C681.023 135.811 681.269 135.783 681.515 135.729C681.765 135.67 681.991 135.596 682.195 135.506L682.37 134.305H683.642V136.344C683.31 136.562 682.896 136.748 682.4 136.9C681.904 137.049 681.353 137.123 680.747 137.123ZM685.636 137V135.975L686.544 135.799V129.676L685.636 129.5V128.469H694.355V129.5L693.446 129.676V135.799L694.355 135.975V137H690.827V135.975L691.735 135.799V129.787H688.255V135.799L689.169 135.975V137H685.636ZM698.259 137.123C698.161 137.123 698.05 137.119 697.925 137.111C697.804 137.104 697.712 137.098 697.649 137.094L697.638 135.787C697.681 135.795 697.755 135.801 697.86 135.805C697.966 135.809 698.046 135.811 698.101 135.811C698.409 135.811 698.642 135.742 698.798 135.605C698.954 135.469 699.083 135.262 699.185 134.984L699.314 134.662L696.864 129.623L695.956 129.5V128.469H699.308V129.5L698.675 129.6L699.841 132.189L700.046 132.717H700.081L701.241 129.617L700.649 129.5V128.469H703.843V129.5L703.011 129.611L700.579 135.383C700.415 135.754 700.233 136.07 700.034 136.332C699.835 136.59 699.593 136.787 699.308 136.924C699.026 137.057 698.677 137.123 698.259 137.123ZM705.427 137V135.975L706.335 135.799V129.676L705.427 129.5V128.469H711.895V130.631H710.583L710.513 129.787H708.069V131.627H709.534C710.194 131.627 710.763 131.736 711.239 131.955C711.72 132.174 712.089 132.482 712.347 132.881C712.608 133.275 712.739 133.742 712.739 134.281C712.739 134.824 712.608 135.301 712.347 135.711C712.085 136.117 711.714 136.434 711.233 136.66C710.753 136.887 710.186 137 709.534 137H705.427ZM708.069 135.688H709.534C710.015 135.688 710.384 135.553 710.642 135.283C710.903 135.014 711.034 134.676 711.034 134.27C711.034 133.879 710.905 133.561 710.647 133.314C710.39 133.068 710.019 132.945 709.534 132.945H708.069V135.688ZM714.429 137V135.688H714.657C714.923 135.668 715.141 135.6 715.313 135.482C715.489 135.365 715.626 135.184 715.724 134.938C715.825 134.688 715.897 134.354 715.94 133.936C715.987 133.514 716.013 132.986 716.016 132.354L716.046 129.676L715.149 129.5V128.469H722.772V129.5L721.858 129.676V135.799L722.772 135.975V137H719.239V135.975L720.153 135.799V129.787H717.751L717.727 132.354C717.72 133.182 717.655 133.891 717.534 134.48C717.417 135.066 717.239 135.547 717.001 135.922C716.766 136.293 716.472 136.566 716.116 136.742C715.761 136.914 715.339 137 714.85 137H714.429ZM724.573 137V135.975L725.487 135.799V129.676L724.573 129.5V128.469H725.487H727.192H728.106V129.5L727.192 129.676V133.625L727.227 133.637L730.667 130.15V129.676L729.759 129.5V128.469H730.667H732.384H733.292V129.5L732.384 129.676V135.799L733.292 135.975V137H729.759V135.975L730.667 135.799V131.943L730.632 131.932L727.192 135.424V135.799L728.106 135.975V137H724.573ZM734.987 137V135.975L735.895 135.799V129.676L734.987 129.5V128.469H738.473V129.5L737.606 129.676V131.955H738.374L739.973 129.652C740.313 129.176 740.628 128.846 740.917 128.662C741.206 128.479 741.528 128.387 741.884 128.387C742.102 128.387 742.298 128.414 742.469 128.469C742.645 128.523 742.805 128.596 742.95 128.686L742.663 129.969C742.581 129.949 742.505 129.934 742.434 129.922C742.368 129.906 742.301 129.898 742.235 129.898C742.067 129.898 741.901 129.949 741.737 130.051C741.577 130.152 741.389 130.342 741.175 130.619L739.839 132.447L742.2 135.828L743.096 135.975V137H739.716V135.975L740.202 135.904L740.19 135.887L738.608 133.508H737.606V135.799L738.473 135.975V137H734.987ZM744.557 137V135.975L745.167 135.887L747.88 128.469H749.631L752.327 135.887L752.936 135.975V137H750.03V135.975L750.622 135.869L750.247 134.697H747.247L746.872 135.869L747.464 135.975V137H744.557ZM747.651 133.438H749.842L748.846 130.514L748.764 130.256H748.729L748.641 130.531L747.651 133.438ZM680.947 153V151.975L681.557 151.887L684.27 144.469H686.022L688.717 151.887L689.326 151.975V153H686.42V151.975L687.012 151.869L686.637 150.697H683.637L683.262 151.869L683.854 151.975V153H680.947ZM684.041 149.438H686.233L685.236 146.514L685.154 146.256H685.119L685.031 146.531L684.041 149.438ZM691.033 153V151.688H691.262C691.527 151.668 691.746 151.6 691.918 151.482C692.094 151.365 692.231 151.184 692.328 150.938C692.43 150.688 692.502 150.354 692.545 149.936C692.592 149.514 692.617 148.986 692.621 148.354L692.65 145.676L691.754 145.5V144.469H699.377V145.5L698.463 145.676V151.799L699.377 151.975V153H695.844V151.975L696.758 151.799V145.787H694.356L694.332 148.354C694.324 149.182 694.26 149.891 694.139 150.48C694.022 151.066 693.844 151.547 693.606 151.922C693.371 152.293 693.076 152.566 692.721 152.742C692.365 152.914 691.943 153 691.455 153H691.033ZM703.064 153V151.975L703.979 151.799V145.787H702.426L702.332 146.807H701.037V144.469H708.648V146.807H707.348L707.254 145.787H705.689V151.799L706.609 151.975V153H703.064ZM709.184 153V151.975L709.793 151.887L712.506 144.469H714.258L716.953 151.887L717.562 151.975V153H714.656V151.975L715.248 151.869L714.873 150.697H711.873L711.498 151.869L712.09 151.975V153H709.184ZM712.277 149.438H714.469L713.473 146.514L713.391 146.256H713.355L713.268 146.531L712.277 149.438ZM719.287 153V151.975L720.201 151.799V145.676L719.287 145.5V144.469H720.201H721.906H722.82V145.5L721.906 145.676V149.625L721.941 149.637L725.381 146.15V145.676L724.473 145.5V144.469H725.381H727.098H728.006V145.5L727.098 145.676V151.799L728.006 151.975V153H724.473V151.975L725.381 151.799V147.943L725.346 147.932L721.906 151.424V151.799L722.82 151.975V153H719.287ZM723.652 143.947C723.023 143.947 722.523 143.789 722.152 143.473C721.781 143.152 721.603 142.742 721.619 142.242L721.631 142.207H722.791C722.791 142.434 722.859 142.621 722.996 142.77C723.137 142.918 723.355 142.992 723.652 142.992C723.945 142.992 724.16 142.92 724.297 142.775C724.433 142.631 724.502 142.441 724.502 142.207H725.674L725.685 142.242C725.693 142.742 725.514 143.152 725.146 143.473C724.779 143.789 724.281 143.947 723.652 143.947Z" fill="white" style="fill:white;fill-opacity:1;"/>
<path d="M704.651 104.015V104.015C700.725 105.585 696.275 105.099 692.782 102.717L689.16 100.247L687.786 99.3582C684.443 97.1952 683.084 92.9784 684.535 89.2706V89.2706C685.351 87.1855 685.308 84.8563 684.508 82.765C683.562 80.2907 682.553 77.5675 682.042 76.8012C681.205 75.5452 677.437 71.7771 675.762 71.3584L673.25 70.5211L672.503 70.3344C671.892 70.1817 671.253 70.1669 670.635 70.2904V70.2904C669.882 70.441 669.182 70.794 668.613 71.3107V71.3107C666.664 73.083 663.587 72.6656 662.18 70.4379L659.852 66.7531L659.549 66.1899C657.808 62.9569 656.622 59.4621 655.814 55.8802C655.23 53.2903 654.554 50.7126 653.991 49.5874C652.735 47.0753 636.407 41.6325 634.313 41.6325C633.97 41.6325 633.42 41.8559 632.737 42.2339C627.161 45.3211 620.008 44.5862 616.729 39.1205V39.1205L611.992 32.541C610.134 29.9614 607.963 27.6058 605.372 25.7645C603.739 24.604 602.199 23.6295 601.657 23.6295C600.93 23.6295 596.068 23.6295 591.796 23.6295C588.895 23.6295 586.01 24.053 583.231 24.8866L579.905 25.8845C574.023 27.649 569.152 31.8007 566.477 37.3284V37.3284C565.105 40.1645 563.137 42.6712 560.708 44.6778L554.765 49.5874L549.813 53.4386C545.633 56.6901 540.769 58.9505 535.588 60.0495L534.914 60.1924C531.422 60.9333 528.079 62.2348 524.901 63.8631C521.987 65.3565 518.961 66.7531 517.922 66.7531C516.58 66.7531 510.312 68.7237 505.576 70.2967C503.479 70.993 501.33 71.5157 499.143 71.8281L487.913 73.4324C482.058 74.2688 476.047 73.6881 470.611 71.3584V71.3584V71.3584C465.04 68.9708 458.942 74.881 452.881 74.8925C450.494 74.897 448.441 74.8506 447.584 74.7078C445.575 74.3729 439.769 70.9398 437.117 69.2651C435.303 68.4277 431.256 66.4181 429.581 65.0783C427.488 63.4036 422.883 69.2651 420.37 66.7531C417.858 64.241 412.416 69.2651 409.066 69.2651C407.487 69.2651 405.442 71.8834 403.686 74.8051C401.473 78.4871 399.15 82.1421 396.047 85.1137C393.382 87.6666 390.598 90.2302 389.389 91.0362C387.379 92.3759 381.573 97.735 378.922 100.247C375.712 103.596 367.13 115.458 364 116.5C360 117.831 354.849 121.181 351.5 120.343C350.206 120.02 347.964 117.307 345.378 114.761C340.614 110.069 334.824 113.729 329.104 117.192C328.443 117.592 327.863 117.831 327.425 117.831C324.913 117.831 316.12 117.831 314.446 114.482C312.771 111.133 310.678 114.482 309.003 114.482C307.328 114.482 295.187 114.482 293.512 114.482C291.837 114.482 289.325 122.437 287.232 124.949C285.139 127.461 277.184 122.437 273.416 120.343C269.648 118.25 256.669 119.506 254.994 117.831C253.319 116.157 241.178 114.901 237.41 114.482C233.642 114.063 219.825 111.97 217.732 110.295C215.639 108.621 198.054 105.271 196.38 104.015C194.705 102.759 189.262 96.479 188.425 94.3856C187.587 92.2922 176.283 89.3615 174.608 85.5934C173.99 84.2029 172.339 83.8279 170.451 83.9508C166.141 84.2315 161.914 85.5934 157.595 85.5934V85.5934C154.166 85.5934 150.765 86.1593 147.494 87.186C143.999 88.283 140.318 89.3615 139.44 89.3615C138.494 89.3615 133.179 89.3615 128.417 89.3615C124.9 89.3615 121.403 88.8313 118.044 87.7887L113.696 86.4393C111.881 85.8763 110.116 85.1666 108.417 84.3171L104.976 82.5964C102.31 81.2633 99.3699 80.5693 96.3891 80.5693H95.3021C93.2124 80.5693 91.1482 81.0273 89.2546 81.911L89.1131 81.977C86.9736 82.9754 85.1283 84.5096 83.756 86.4308V86.4308" stroke="white" style="stroke:white;stroke-opacity:1;" stroke-linecap="round"/>
<path d="M420.765 193.533L419.332 186.726C418.063 180.699 415.809 174.922 412.659 169.629L410.5 166L404.371 154.355C401.829 149.526 398.14 145.395 393.628 142.325L391.774 141.064C388.811 139.048 385.428 137.733 381.881 137.219L379.989 136.945C374.751 136.186 370.059 133.297 367.023 128.961V128.961C364.126 124.822 359.711 121.993 354.74 121.089L351.5 120.5M18 202.325V195.629C18 190.974 19.2918 186.41 21.7315 182.445L23.1644 180.117C24.1747 178.475 25.5373 177.078 27.1535 176.028V176.028C30.8451 173.628 33.0723 169.524 33.0723 165.122V160.458C33.0723 157.527 33.0723 151.163 33.0723 149.154C33.0723 146.642 41.8645 145.386 43.9578 145.386C46.0512 145.386 50.2379 140.78 50.2379 138.687C50.2379 136.593 54.006 135.756 57.7741 135.756V135.756C64.1271 135.756 61.6574 125.083 59.4863 119.112L57.7741 114.404L55.4067 108.485C52.0549 100.106 51.5625 90.8538 54.006 82.1657V82.1657L56.594 75.2643C57.3619 73.2168 58.745 71.4573 60.5532 70.2277L64.072 67.8349C66.4567 66.2133 69.6744 66.6126 71.5904 68.7681V68.7681L73.2971 70.5815C76.6112 74.1027 79.4552 78.0383 81.7583 82.2901L83.7319 85.9337" stroke="white" style="stroke:white;stroke-opacity:1;"/>
<path d="M561 44.5L559.373 49.7883C559.125 50.5947 558.81 51.3793 558.433 52.134L558.043 52.9141C557.355 54.2898 556.39 55.5083 555.208 56.493L554.541 57.0489C552.308 58.91 549.338 59.6307 546.5 59V59L542 58" stroke="white" style="stroke:white;stroke-opacity:1;"/>
<path d="M638.5 42.4698C638.5 44.7821 636.626 46.6566 634.313 46.6566C632.001 46.6566 630.127 44.7821 630.127 42.4698C630.127 40.1576 632.001 38.2831 634.313 38.2831C636.626 38.2831 638.5 40.1576 638.5 42.4698Z" fill="#C00F0F" style="fill:#C00F0F;fill:color(display-p3 0.7542 0.0597 0.0597);fill-opacity:1;"/>
<path fill-rule="evenodd" clip-rule="evenodd" d="M634.313 45.4579C635.964 45.4579 637.301 44.1201 637.301 42.4698C637.301 40.8195 635.964 39.4817 634.313 39.4817C632.663 39.4817 631.325 40.8195 631.325 42.4698C631.325 44.1201 632.663 45.4579 634.313 45.4579ZM634.313 46.6566C636.626 46.6566 638.5 44.7821 638.5 42.4698C638.5 40.1576 636.626 38.2831 634.313 38.2831C632.001 38.2831 630.127 40.1576 630.127 42.4698C630.127 44.7821 632.001 46.6566 634.313 46.6566Z" fill="white" style="fill:white;fill-opacity:1;"/>
<path d="M370.373 129.187C370.373 131.499 368.499 133.373 366.187 133.373C363.874 133.373 362 131.499 362 129.187C362 126.874 363.874 125 366.187 125C368.499 125 370.373 126.874 370.373 129.187Z" fill="#C00F0F" style="fill:#C00F0F;fill:color(display-p3 0.7542 0.0597 0.0597);fill-opacity:1;"/>
<path fill-rule="evenodd" clip-rule="evenodd" d="M366.187 132.175C367.837 132.175 369.175 130.837 369.175 129.187C369.175 127.536 367.837 126.199 366.187 126.199C364.536 126.199 363.199 127.536 363.199 129.187C363.199 130.837 364.536 132.175 366.187 132.175ZM366.187 133.373C368.499 133.373 370.373 131.499 370.373 129.187C370.373 126.874 368.499 125 366.187 125C363.874 125 362 126.874 362 129.187C362 131.499 363.874 133.373 366.187 133.373Z" fill="white" style="fill:white;fill-opacity:1;"/>
<path d="M708 104.434C708 106.746 706.126 108.62 703.813 108.62C701.501 108.62 699.627 106.746 699.627 104.434C699.627 102.121 701.501 100.247 703.813 100.247C706.126 100.247 708 102.121 708 104.434Z" fill="#C00F0F" style="fill:#C00F0F;fill:color(display-p3 0.7542 0.0597 0.0597);fill-opacity:1;"/>
<path fill-rule="evenodd" clip-rule="evenodd" d="M703.813 107.422C705.464 107.422 706.801 106.084 706.801 104.434C706.801 102.783 705.464 101.446 703.813 101.446C702.163 101.446 700.825 102.783 700.825 104.434C700.825 106.084 702.163 107.422 703.813 107.422ZM703.813 108.62C706.126 108.62 708 106.746 708 104.434C708 102.121 706.126 100.247 703.813 100.247C701.501 100.247 699.627 102.121 699.627 104.434C699.627 106.746 701.501 108.62 703.813 108.62Z" fill="white" style="fill:white;fill-opacity:1;"/>
<path d="M558.373 58.1867C558.373 60.499 556.499 62.3735 554.187 62.3735C551.874 62.3735 550 60.499 550 58.1867C550 55.8745 551.874 54 554.187 54C556.499 54 558.373 55.8745 558.373 58.1867Z" fill="#C00F0F" style="fill:#C00F0F;fill:color(display-p3 0.7542 0.0597 0.0597);fill-opacity:1;"/>
<path fill-rule="evenodd" clip-rule="evenodd" d="M554.187 61.1749C555.837 61.1749 557.175 59.837 557.175 58.1867C557.175 56.5365 555.837 55.1986 554.187 55.1986C552.536 55.1986 551.199 56.5365 551.199 58.1867C551.199 59.837 552.536 61.1749 554.187 61.1749ZM554.187 62.3735C556.499 62.3735 558.373 60.499 558.373 58.1867C558.373 55.8745 556.499 54 554.187 54C551.874 54 550 55.8745 550 58.1867C550 60.499 551.874 62.3735 554.187 62.3735Z" fill="white" style="fill:white;fill-opacity:1;"/>
<path d="M71.3735 67.1867C71.3735 69.499 69.499 71.3735 67.1867 71.3735C64.8745 71.3735 63 69.499 63 67.1867C63 64.8745 64.8745 63 67.1867 63C69.499 63 71.3735 64.8745 71.3735 67.1867Z" fill="#C00F0F" style="fill:#C00F0F;fill:color(display-p3 0.7542 0.0597 0.0597);fill-opacity:1;"/>
<path fill-rule="evenodd" clip-rule="evenodd" d="M67.1867 70.1749C68.837 70.1749 70.1749 68.837 70.1749 67.1867C70.1749 65.5365 68.837 64.1986 67.1867 64.1986C65.5365 64.1986 64.1986 65.5365 64.1986 67.1867C64.1986 68.837 65.5365 70.1749 67.1867 70.1749ZM67.1867 71.3735C69.499 71.3735 71.3735 69.499 71.3735 67.1867C71.3735 64.8745 69.499 63 67.1867 63C64.8745 63 63 64.8745 63 67.1867C63 69.499 64.8745 71.3735 67.1867 71.3735Z" fill="white" style="fill:white;fill-opacity:1;"/>
<path d="M87.3735 86.1867C87.3735 88.499 85.499 90.3735 83.1867 90.3735C80.8745 90.3735 79 88.499 79 86.1867C79 83.8745 80.8745 82 83.1867 82C85.499 82 87.3735 83.8745 87.3735 86.1867Z" fill="#929292" style="fill:#929292;fill:color(display-p3 0.5708 0.5708 0.5708);fill-opacity:1;"/>
<path fill-rule="evenodd" clip-rule="evenodd" d="M83.1867 89.1749C84.837 89.1749 86.1749 87.837 86.1749 86.1867C86.1749 84.5365 84.837 83.1986 83.1867 83.1986C81.5365 83.1986 80.1986 84.5365 80.1986 86.1867C80.1986 87.837 81.5365 89.1749 83.1867 89.1749ZM83.1867 90.3735C85.499 90.3735 87.3735 88.499 87.3735 86.1867C87.3735 83.8745 85.499 82 83.1867 82C80.8745 82 79 83.8745 79 86.1867C79 88.499 80.8745 90.3735 83.1867 90.3735Z" fill="white" style="fill:white;fill-opacity:1;"/>
<path d="M349.373 115.187C349.373 117.499 347.499 119.373 345.187 119.373C342.874 119.373 341 117.499 341 115.187C341 112.874 342.874 111 345.187 111C347.499 111 349.373 112.874 349.373 115.187Z" fill="#929292" style="fill:#929292;fill:color(display-p3 0.5708 0.5708 0.5708);fill-opacity:1;"/>
<path fill-rule="evenodd" clip-rule="evenodd" d="M345.187 118.175C346.837 118.175 348.175 116.837 348.175 115.187C348.175 113.536 346.837 112.199 345.187 112.199C343.536 112.199 342.199 113.536 342.199 115.187C342.199 116.837 343.536 118.175 345.187 118.175ZM345.187 119.373C347.499 119.373 349.373 117.499 349.373 115.187C349.373 112.874 347.499 111 345.187 111C342.874 111 341 112.874 341 115.187C341 117.499 342.874 119.373 345.187 119.373Z" fill="white" style="fill:white;fill-opacity:1;"/>
<path d="M425.373 194.187C425.373 196.499 423.499 198.373 421.187 198.373C418.874 198.373 417 196.499 417 194.187C417 191.874 418.874 190 421.187 190C423.499 190 425.373 191.874 425.373 194.187Z" fill="#929292" style="fill:#929292;fill:color(display-p3 0.5708 0.5708 0.5708);fill-opacity:1;"/>
<path fill-rule="evenodd" clip-rule="evenodd" d="M421.187 197.175C422.837 197.175 424.175 195.837 424.175 194.187C424.175 192.536 422.837 191.199 421.187 191.199C419.536 191.199 418.199 192.536 418.199 194.187C418.199 195.837 419.536 197.175 421.187 197.175ZM421.187 198.373C423.499 198.373 425.373 196.499 425.373 194.187C425.373 191.874 423.499 190 421.187 190C418.874 190 417 191.874 417 194.187C417 196.499 418.874 198.373 421.187 198.373Z" fill="white" style="fill:white;fill-opacity:1;"/>
<path d="M21.3735 204.916C21.3735 207.228 19.499 209.102 17.1867 209.102C14.8745 209.102 13 207.228 13 204.916C13 202.603 14.8745 200.729 17.1867 200.729C19.499 200.729 21.3735 202.603 21.3735 204.916Z" fill="#929292" style="fill:#929292;fill:color(display-p3 0.5708 0.5708 0.5708);fill-opacity:1;"/>
<path fill-rule="evenodd" clip-rule="evenodd" d="M17.1867 207.904C18.837 207.904 20.1749 206.566 20.1749 204.916C20.1749 203.265 18.837 201.928 17.1867 201.928C15.5365 201.928 14.1986 203.265 14.1986 204.916C14.1986 206.566 15.5365 207.904 17.1867 207.904ZM17.1867 209.102C19.499 209.102 21.3735 207.228 21.3735 204.916C21.3735 202.603 19.499 200.729 17.1867 200.729C14.8745 200.729 13 202.603 13 204.916C13 207.228 14.8745 209.102 17.1867 209.102Z" fill="white" style="fill:white;fill-opacity:1;"/>
</svg>
